IKResults
version=1
nRows=7
nColumns=42
inDegrees=yes

Units are S.I. units (second, meters, Newtons, ...)
Angles are in degrees.

endheader
time	pelvis_tilt	pelvis_list	pelvis_rotation	pelvis_tx	pelvis_ty	pelvis_tz	hip_flexion_r	hip_adduction_r	hip_rotation_r	knee_angle_r	knee_adduction_r	knee_angle_r_beta	ankle_angle_r	subtalar_angle_r	mtp_angle_r	hip_flexion_l	hip_adduction_l	hip_rotation_l	knee_angle_l	knee_adduction_l	knee_angle_l_beta	ankle_angle_l	subtalar_angle_l	mtp_angle_l	lumbar_extension	lumbar_bending	lumbar_rotation	arm_flex_r	arm_add_r	arm_rot_r	elbow_flex_r	pro_sup_r	wrist_flex_r	wrist_dev_r	arm_flex_l	arm_add_l	arm_rot_l	elbow_flex_l	pro_sup_l	wrist_flex_l	wrist_dev_l
      0.00000000	     -1.39379289	     -0.59538492	      5.81831103	      0.62007405	      0.96158368	      0.03590859	      6.68577465	     -1.22632181	     -6.85881155	     12.15623422	      6.47602164	      0.21216631	      9.53550975	     -8.85275216	      6.93926934	     28.05416782	     -2.92105653	      3.07441795	     18.12968639	      5.09547410	      0.31642272	      7.41705499	     -3.27031535	      1.07805980	    -17.04284866	      2.90919312	     -7.02059415	      2.08127402	    -24.44190917	      0.09990243	     71.72710506	     47.01085301	      0.00000000	      0.00000000	      0.92307348	    -24.01057405	      1.15469636	     71.72710506	     47.01085301	      0.00000000	      0.00000000
      0.00665801	     -1.40638199	     -0.63614532	      5.80480101	      0.62015501	      0.96153662	      0.03590655	      6.69514257	     -1.18179303	     -6.83341740	     12.13730250	      6.47602164	      0.21183589	      9.46652228	     -8.86053761	      6.75096598	     28.05796183	     -2.96827480	      3.12334085	     18.25256840	      5.09547410	      0.31856742	      7.44041615	     -3.29752053	      1.10779158	    -17.01426448	      2.95549211	     -7.00537721	      2.06358297	    -24.47321635	      0.09777217	     71.78840854	     46.92499211	      0.00000000	      0.00000000	      0.88891888	    -23.98855654	      1.14114724	     71.78840854	     46.92499211	      0.00000000	      0.00000000
      0.01331602	     -1.42414307	     -0.65324823	      5.78950742	      0.62028285	      0.96148227	      0.03593513	      6.70249413	     -1.16038736	     -6.81832680	     12.11706062	      6.47602164	      0.21148260	      9.41579633	     -8.86926156	      6.58904483	     28.05837509	     -2.99715942	      3.12233992	     18.38058745	      5.09547410	      0.32080177	      7.46279734	     -3.28514374	      1.12432740	    -16.97203288	      2.96852434	     -6.99860051	      2.05122260	    -24.47441789	      0.09701370	     71.84719494	     46.84548954	      0.00000000	      0.00000000	      0.85800398	    -23.97818226	      1.12917521	     71.84719494	     46.84548954	      0.00000000	      0.00000000
      0.01997403	     -1.44810977	     -0.66802949	      5.76131500	      0.62041561	      0.96142480	      0.03598251	      6.72351147	     -1.14223967	     -6.79671327	     12.11273617	      6.47602164	      0.21140713	      9.37965442	     -8.87264034	      6.43772142	     28.06673875	     -3.02605727	      3.12246392	     18.52102156	      5.09547410	      0.32325281	      7.48916381	     -3.27152204	      1.13220587	    -16.93587569	      2.97178812	     -6.97591086	      2.04299098	    -24.46659791	      0.09711078	     71.90507647	     46.77002514	      0.00000000	      0.00000000	      0.82352131	    -23.96667745	      1.11667832	     71.90507647	     46.77002514	      0.00000000	      0.00000000
      0.02663203	     -1.27153151	     -0.64012964	      5.79568308	      0.62043253	      0.96164698	      0.03589342	      6.52203400	     -1.16306462	     -6.88111102	     12.12773131	      6.47602164	      0.21166884	      9.46122580	     -8.84232395	      6.57697284	     27.83103932	     -2.99297372	      3.22800415	     18.59873104	      5.09547410	      0.32460909	      7.45896244	     -3.39395694	      1.20517008	    -17.14055387	      2.97839384	     -7.02442264	      2.09250036	    -24.47826348	      0.10648017	     71.95693942	     46.68576743	      0.00000000	      0.00000000	      0.85076859	    -23.98725368	      1.11665601	     71.95693942	     46.68576743	      0.00000000	      0.00000000
      0.03329004	     -1.36270222	     -0.68628307	      5.75679391	      0.62061885	      0.96149932	      0.03594494	      6.61240267	     -1.11476330	     -6.82008448	     12.10515709	      6.47602164	      0.21127485	      9.40995160	     -8.85988325	      6.44051266	     27.91053714	     -3.05872781	      3.19890975	     18.75055460	      5.09547410	      0.32725891	      7.50021254	     -3.31419884	      1.18579536	    -17.00073131	      3.01269949	     -6.98982050	      2.04576345	    -24.48409305	      0.09989472	     72.01936582	     46.61215705	      0.00000000	      0.00000000	      0.79328940	    -23.94228468	      1.09750360	     72.01936582	     46.61215705	      0.00000000	      0.00000000
      0.03994805	     -1.34196014	     -0.70785192	      5.75192953	      0.62070053	      0.96150489	      0.03592695	      6.57973207	     -1.08896249	     -6.81356857	     12.08549815	      6.47602164	      0.21093173	      9.38825893	     -8.86487170	      6.37262715	     27.86784580	     -3.08559307	      3.25416725	     18.89216473	      5.09547410	      0.32973048	      7.51992457	     -3.32831140	      1.19369491	    -17.02065983	      3.04487644	     -6.98323863	      2.04262412	    -24.49153802	      0.10050183	     72.07235249	     46.54434445	      0.00000000	      0.00000000	      0.76227041	    -23.92963684	      1.08588024	     72.07235249	     46.54434445	      0.00000000	      0.00000000
